<mxfile host="Electron" agent="Mozilla/5.0 (X11; Linux x86_64) AppleWebKit/537.36 (KHTML, like Gecko) draw.io/26.2.2 Chrome/134.0.6998.178 Electron/35.1.2 Safari/537.36" version="26.2.2">
  <diagram id="l8l5jkCKSHWW55jYo056" name="Page-1">
    <mxGraphModel dx="1114" dy="642" grid="1" gridSize="10" guides="1" tooltips="1" connect="1" arrows="1" fold="1" page="1" pageScale="1" pageWidth="1100" pageHeight="850" math="0" shadow="0">
      <root>
        <mxCell id="0" />
        <mxCell id="1" parent="0" />
        <mxCell id="9MWVswXJRzClw6tOpVFE-1" value="Frontier Queue" style="rounded=1;whiteSpace=wrap;html=1;" parent="1" vertex="1">
          <mxGeometry x="290" y="295" width="295" height="60" as="geometry" />
        </mxCell>
        <mxCell id="9MWVswXJRzClw6tOpVFE-19" style="edgeStyle=orthogonalEdgeStyle;curved=1;rounded=0;orthogonalLoop=1;jettySize=auto;html=1;exitX=0.75;exitY=0;exitDx=0;exitDy=0;entryX=0.55;entryY=0.95;entryDx=0;entryDy=0;entryPerimeter=0;shadow=0;startArrow=classic;startFill=1;" parent="1" source="9MWVswXJRzClw6tOpVFE-2" target="9MWVswXJRzClw6tOpVFE-18" edge="1">
          <mxGeometry relative="1" as="geometry" />
        </mxCell>
        <mxCell id="9MWVswXJRzClw6tOpVFE-31" style="edgeStyle=orthogonalEdgeStyle;curved=1;rounded=0;orthogonalLoop=1;jettySize=auto;html=1;exitX=0;exitY=0.5;exitDx=0;exitDy=0;entryX=1;entryY=0.5;entryDx=0;entryDy=0;shadow=0;startArrow=classic;startFill=1;endArrow=none;endFill=0;" parent="1" source="9MWVswXJRzClw6tOpVFE-2" target="9MWVswXJRzClw6tOpVFE-1" edge="1">
          <mxGeometry relative="1" as="geometry" />
        </mxCell>
        <mxCell id="9MWVswXJRzClw6tOpVFE-2" value="" style="shape=parallelogram;perimeter=parallelogramPerimeter;whiteSpace=wrap;html=1;fixedSize=1;" parent="1" vertex="1">
          <mxGeometry x="645" y="325" width="120" height="60" as="geometry" />
        </mxCell>
        <mxCell id="9MWVswXJRzClw6tOpVFE-32" style="edgeStyle=orthogonalEdgeStyle;curved=1;rounded=0;orthogonalLoop=1;jettySize=auto;html=1;exitX=0;exitY=0.5;exitDx=0;exitDy=0;entryX=1;entryY=0.5;entryDx=0;entryDy=0;shadow=0;startArrow=classic;startFill=1;endArrow=none;endFill=0;" parent="1" source="9MWVswXJRzClw6tOpVFE-5" target="9MWVswXJRzClw6tOpVFE-1" edge="1">
          <mxGeometry relative="1" as="geometry" />
        </mxCell>
        <mxCell id="9MWVswXJRzClw6tOpVFE-5" value="" style="shape=parallelogram;perimeter=parallelogramPerimeter;whiteSpace=wrap;html=1;fixedSize=1;" parent="1" vertex="1">
          <mxGeometry x="655" y="335" width="120" height="60" as="geometry" />
        </mxCell>
        <mxCell id="9MWVswXJRzClw6tOpVFE-33" style="edgeStyle=orthogonalEdgeStyle;curved=1;rounded=0;orthogonalLoop=1;jettySize=auto;html=1;exitX=0;exitY=0.5;exitDx=0;exitDy=0;entryX=1;entryY=0.5;entryDx=0;entryDy=0;shadow=0;startArrow=classic;startFill=1;endArrow=none;endFill=0;" parent="1" source="9MWVswXJRzClw6tOpVFE-6" target="9MWVswXJRzClw6tOpVFE-1" edge="1">
          <mxGeometry relative="1" as="geometry" />
        </mxCell>
        <mxCell id="9MWVswXJRzClw6tOpVFE-6" value="" style="shape=parallelogram;perimeter=parallelogramPerimeter;whiteSpace=wrap;html=1;fixedSize=1;" parent="1" vertex="1">
          <mxGeometry x="665" y="345" width="120" height="60" as="geometry" />
        </mxCell>
        <mxCell id="9MWVswXJRzClw6tOpVFE-23" style="edgeStyle=orthogonalEdgeStyle;curved=1;rounded=0;orthogonalLoop=1;jettySize=auto;html=1;exitX=0.5;exitY=1;exitDx=0;exitDy=0;entryX=1;entryY=0.5;entryDx=0;entryDy=0;shadow=0;startArrow=none;startFill=0;" parent="1" source="9MWVswXJRzClw6tOpVFE-7" target="9MWVswXJRzClw6tOpVFE-22" edge="1">
          <mxGeometry relative="1" as="geometry" />
        </mxCell>
        <mxCell id="9MWVswXJRzClw6tOpVFE-34" style="edgeStyle=orthogonalEdgeStyle;curved=1;rounded=0;orthogonalLoop=1;jettySize=auto;html=1;exitX=0;exitY=0.5;exitDx=0;exitDy=0;entryX=1;entryY=0.5;entryDx=0;entryDy=0;shadow=0;startArrow=classic;startFill=1;endArrow=none;endFill=0;" parent="1" source="9MWVswXJRzClw6tOpVFE-7" target="9MWVswXJRzClw6tOpVFE-1" edge="1">
          <mxGeometry relative="1" as="geometry" />
        </mxCell>
        <mxCell id="9MWVswXJRzClw6tOpVFE-7" value="Extractor" style="shape=parallelogram;perimeter=parallelogramPerimeter;whiteSpace=wrap;html=1;fixedSize=1;" parent="1" vertex="1">
          <mxGeometry x="675" y="355" width="120" height="60" as="geometry" />
        </mxCell>
        <mxCell id="9MWVswXJRzClw6tOpVFE-18" value="Internet" style="ellipse;shape=cloud;whiteSpace=wrap;html=1;shadow=0;sketch=0;" parent="1" vertex="1">
          <mxGeometry x="630" y="190" width="120" height="80" as="geometry" />
        </mxCell>
        <mxCell id="9MWVswXJRzClw6tOpVFE-20" value="Page Storage" style="shape=datastore;whiteSpace=wrap;html=1;shadow=0;sketch=0;" parent="1" vertex="1">
          <mxGeometry x="785" y="525" width="135" height="80" as="geometry" />
        </mxCell>
        <mxCell id="9MWVswXJRzClw6tOpVFE-25" style="edgeStyle=orthogonalEdgeStyle;curved=1;rounded=0;orthogonalLoop=1;jettySize=auto;html=1;exitX=0.5;exitY=0;exitDx=0;exitDy=0;entryX=0.5;entryY=1;entryDx=0;entryDy=0;shadow=0;startArrow=none;startFill=0;" parent="1" source="9MWVswXJRzClw6tOpVFE-22" target="9MWVswXJRzClw6tOpVFE-24" edge="1">
          <mxGeometry relative="1" as="geometry" />
        </mxCell>
        <mxCell id="9MWVswXJRzClw6tOpVFE-26" style="edgeStyle=orthogonalEdgeStyle;curved=1;rounded=0;orthogonalLoop=1;jettySize=auto;html=1;entryX=0;entryY=0.5;entryDx=0;entryDy=0;shadow=0;startArrow=none;startFill=0;exitX=0;exitY=0.5;exitDx=0;exitDy=0;" parent="1" source="0ODBATaz-qquM8-hjlLo-1" target="9MWVswXJRzClw6tOpVFE-1" edge="1">
          <mxGeometry relative="1" as="geometry">
            <Array as="points">
              <mxPoint x="240" y="550" />
              <mxPoint x="240" y="325" />
            </Array>
            <mxPoint x="130" y="550" as="sourcePoint" />
          </mxGeometry>
        </mxCell>
        <mxCell id="9MWVswXJRzClw6tOpVFE-22" value="Collector API" style="rounded=0;whiteSpace=wrap;html=1;shadow=0;sketch=0;" parent="1" vertex="1">
          <mxGeometry x="465" y="520" width="120" height="60" as="geometry" />
        </mxCell>
        <mxCell id="9MWVswXJRzClw6tOpVFE-24" value="Visited/HashSet" style="shape=datastore;whiteSpace=wrap;html=1;shadow=0;sketch=0;" parent="1" vertex="1">
          <mxGeometry x="475" y="425" width="100" height="60" as="geometry" />
        </mxCell>
        <mxCell id="9MWVswXJRzClw6tOpVFE-28" style="edgeStyle=orthogonalEdgeStyle;curved=1;rounded=0;orthogonalLoop=1;jettySize=auto;html=1;exitX=0;exitY=0.5;exitDx=0;exitDy=0;entryX=1;entryY=0.5;entryDx=0;entryDy=0;shadow=0;startArrow=none;startFill=0;" parent="1" source="9MWVswXJRzClw6tOpVFE-27" target="9MWVswXJRzClw6tOpVFE-22" edge="1">
          <mxGeometry relative="1" as="geometry" />
        </mxCell>
        <mxCell id="9MWVswXJRzClw6tOpVFE-27" value="Repeater" style="rounded=0;whiteSpace=wrap;html=1;shadow=0;sketch=0;" parent="1" vertex="1">
          <mxGeometry x="645" y="605" width="120" height="60" as="geometry" />
        </mxCell>
        <mxCell id="0ODBATaz-qquM8-hjlLo-1" value="Filter API" style="rounded=0;whiteSpace=wrap;html=1;shadow=0;sketch=0;" vertex="1" parent="1">
          <mxGeometry x="290" y="520" width="120" height="60" as="geometry" />
        </mxCell>
        <mxCell id="0ODBATaz-qquM8-hjlLo-2" value="" style="endArrow=classic;html=1;rounded=0;exitX=0;exitY=0.5;exitDx=0;exitDy=0;entryX=1;entryY=0.5;entryDx=0;entryDy=0;startArrow=classic;startFill=1;" edge="1" parent="1" source="9MWVswXJRzClw6tOpVFE-20" target="9MWVswXJRzClw6tOpVFE-22">
          <mxGeometry width="50" height="50" relative="1" as="geometry">
            <mxPoint x="530" y="550" as="sourcePoint" />
            <mxPoint x="580" y="500" as="targetPoint" />
          </mxGeometry>
        </mxCell>
        <mxCell id="0ODBATaz-qquM8-hjlLo-3" value="" style="endArrow=classic;html=1;rounded=0;exitX=0;exitY=0.5;exitDx=0;exitDy=0;entryX=1;entryY=0.5;entryDx=0;entryDy=0;" edge="1" parent="1" source="9MWVswXJRzClw6tOpVFE-22" target="0ODBATaz-qquM8-hjlLo-1">
          <mxGeometry width="50" height="50" relative="1" as="geometry">
            <mxPoint x="460" y="580" as="sourcePoint" />
            <mxPoint x="510" y="530" as="targetPoint" />
          </mxGeometry>
        </mxCell>
        <mxCell id="0ODBATaz-qquM8-hjlLo-10" style="edgeStyle=orthogonalEdgeStyle;rounded=0;orthogonalLoop=1;jettySize=auto;html=1;entryX=0.5;entryY=1;entryDx=0;entryDy=0;endArrow=none;startFill=1;startArrow=classic;exitX=0.5;exitY=0;exitDx=0;exitDy=0;" edge="1" parent="1" source="0ODBATaz-qquM8-hjlLo-13" target="9MWVswXJRzClw6tOpVFE-22">
          <mxGeometry relative="1" as="geometry">
            <mxPoint x="524.9999999999998" y="620" as="sourcePoint" />
          </mxGeometry>
        </mxCell>
        <mxCell id="0ODBATaz-qquM8-hjlLo-8" value="object store" style="shape=datastore;whiteSpace=wrap;html=1;" vertex="1" parent="1">
          <mxGeometry x="785" y="250" width="90" height="60" as="geometry" />
        </mxCell>
        <mxCell id="0ODBATaz-qquM8-hjlLo-9" value="" style="endArrow=classic;html=1;rounded=0;exitX=0.931;exitY=0.349;exitDx=0;exitDy=0;exitPerimeter=0;curved=1;entryX=0.5;entryY=1;entryDx=0;entryDy=0;" edge="1" parent="1" source="9MWVswXJRzClw6tOpVFE-7" target="0ODBATaz-qquM8-hjlLo-8">
          <mxGeometry width="50" height="50" relative="1" as="geometry">
            <mxPoint x="770" y="400" as="sourcePoint" />
            <mxPoint x="860" y="350" as="targetPoint" />
            <Array as="points">
              <mxPoint x="850" y="370" />
            </Array>
          </mxGeometry>
        </mxCell>
        <mxCell id="0ODBATaz-qquM8-hjlLo-12" value="" style="endArrow=classic;startArrow=classic;html=1;rounded=0;entryX=0.479;entryY=0.989;entryDx=0;entryDy=0;entryPerimeter=0;exitX=1;exitY=0.5;exitDx=0;exitDy=0;curved=1;" edge="1" parent="1" source="9MWVswXJRzClw6tOpVFE-27" target="9MWVswXJRzClw6tOpVFE-20">
          <mxGeometry width="50" height="50" relative="1" as="geometry">
            <mxPoint x="840" y="667.5" as="sourcePoint" />
            <mxPoint x="890" y="617.5" as="targetPoint" />
            <Array as="points">
              <mxPoint x="850" y="640" />
            </Array>
          </mxGeometry>
        </mxCell>
        <mxCell id="0ODBATaz-qquM8-hjlLo-13" value="DNS Resolver" style="rounded=0;whiteSpace=wrap;html=1;" vertex="1" parent="1">
          <mxGeometry x="480" y="625" width="90" height="40" as="geometry" />
        </mxCell>
        <mxCell id="0ODBATaz-qquM8-hjlLo-15" value="" style="endArrow=classic;html=1;rounded=0;entryX=0.5;entryY=0;entryDx=0;entryDy=0;exitX=1;exitY=0.75;exitDx=0;exitDy=0;curved=1;" edge="1" parent="1" source="9MWVswXJRzClw6tOpVFE-7" target="9MWVswXJRzClw6tOpVFE-20">
          <mxGeometry width="50" height="50" relative="1" as="geometry">
            <mxPoint x="840" y="425" as="sourcePoint" />
            <mxPoint x="890" y="375" as="targetPoint" />
            <Array as="points">
              <mxPoint x="860" y="420" />
            </Array>
          </mxGeometry>
        </mxCell>
      </root>
    </mxGraphModel>
  </diagram>
</mxfile>
